<svg version="1.1" id="Layer_1" xmlns="http://www.w3.org/2000/svg" xmlns:xlink="http://www.w3.org/1999/xlink" x="0px" y="0px"
	 width="100%" viewBox="0 0 2000 500" enable-background="new 0 0 2000 500" xml:space="preserve">
<path fill="#0D1117" opacity="1.000000" stroke="none" 
	d="
M1447.000000,501.000000 
	C964.666687,501.000000 482.833344,501.000000 1.000000,501.000000 
	C1.000000,334.333344 1.000000,167.666672 1.000000,1.000000 
	C667.666687,1.000000 1334.333374,1.000000 2001.000000,1.000000 
	C2001.000000,167.666672 2001.000000,334.333344 2001.000000,501.000000 
	C1816.500000,501.000000 1632.000000,501.000000 1447.000000,501.000000 
M344.487457,382.998779 
	C345.820435,382.998505 347.155457,382.949860 348.486115,383.005127 
	C371.724121,383.969910 388.036377,365.608826 387.967255,343.532745 
	C387.832642,300.541504 387.953705,257.549500 387.887512,214.557907 
	C387.881714,210.789276 387.431274,207.000366 386.921661,203.257050 
	C384.662170,186.660355 370.918793,174.250397 354.572998,172.277328 
	C350.767212,171.817932 349.901855,170.692825 349.932465,167.176727 
	C350.077637,150.514557 350.532043,133.826065 349.774139,117.197189 
	C349.392792,108.829590 347.578552,100.248154 344.799194,92.329605 
	C339.688110,77.767776 331.148193,65.363007 318.980011,55.364235 
	C303.616730,42.740005 286.257263,35.856602 266.506805,35.066586 
	C257.689301,34.713879 248.838379,35.241447 240.015884,34.957485 
	C220.786484,34.338558 203.443069,39.779045 188.063324,51.124203 
	C165.289246,67.923958 152.436325,90.221123 152.040833,118.931892 
	C151.818222,135.092361 151.930252,151.258957 152.057663,167.421494 
	C152.083954,170.755768 151.196350,171.914352 147.617584,172.221237 
	C128.482971,173.862137 113.971893,190.773621 114.029846,208.741760 
	C114.178703,254.899017 114.074364,301.057037 114.109688,347.214752 
	C114.123543,365.307861 130.291428,383.067200 150.029388,383.034973 
	C214.516739,382.929596 279.004364,382.997498 344.487457,382.998779 
M1471.963257,286.500519 
	C1472.287476,278.185974 1472.241333,269.836975 1473.011108,261.563873 
	C1474.740967,242.973862 1483.954468,231.078278 1500.060303,227.432693 
	C1515.749512,223.881409 1529.105103,227.627441 1533.503174,244.444382 
	C1534.419922,247.949509 1534.949097,251.661163 1534.963989,255.280487 
	C1535.095581,287.268768 1535.070679,319.257690 1535.092041,351.246429 
	C1535.093140,353.032898 1535.092163,354.819397 1535.092163,356.638367 
	C1543.892822,356.638367 1552.249023,356.638367 1560.776855,356.638367 
	C1560.776855,346.098053 1560.758179,335.948151 1560.780640,325.798309 
	C1560.826172,305.140411 1560.440918,284.468658 1561.073608,263.828400 
	C1561.774414,240.969345 1574.172485,228.011444 1595.639648,226.297867 
	C1610.474243,225.113724 1621.649048,234.354630 1622.955688,249.094940 
	C1623.484375,255.060272 1623.835327,261.061951 1623.854126,267.048370 
	C1623.942261,295.205566 1623.886841,323.363190 1623.882690,351.520660 
	C1623.882446,353.279175 1623.882812,355.037659 1623.882812,356.765869 
	C1632.564453,356.765869 1640.641724,356.765869 1648.799805,356.765869 
	C1648.799805,320.212280 1649.131592,283.917725 1648.613159,247.635300 
	C1648.440186,235.526291 1644.969482,223.912659 1635.406250,215.210953 
	C1619.137085,200.407486 1588.101685,200.574203 1570.267822,215.596161 
	C1565.341675,219.745560 1560.496094,223.990723 1555.813843,228.019714 
	C1548.847900,210.919525 1533.640381,204.533783 1515.039673,204.299377 
	C1496.442505,204.065002 1481.579834,212.035995 1469.325562,227.903152 
	C1469.325562,220.172012 1469.325562,214.094025 1469.325562,207.863983 
	C1461.537964,207.863983 1454.285278,207.863983 1446.803711,207.863983 
	C1446.803711,257.652802 1446.803711,307.211304 1446.803711,356.724274 
	C1455.312256,356.724274 1463.557129,356.724274 1471.964355,356.724274 
	C1471.964355,333.446167 1471.964355,310.473206 1471.963257,286.500519 
M489.043243,285.500000 
	C489.043243,309.248962 489.043243,332.997955 489.043243,356.671997 
	C498.512756,356.671997 507.398163,356.671997 516.727783,356.671997 
	C516.727783,328.774445 516.727783,301.206390 516.727783,273.205963 
	C528.132385,273.205963 539.098450,273.482635 550.045105,273.139496 
	C565.495361,272.655212 581.042542,272.618652 596.345520,270.739594 
	C616.158264,268.306763 631.560791,258.397369 640.252258,239.598785 
	C647.248474,224.466812 648.359314,208.809052 644.079895,192.857483 
	C638.676453,172.716125 625.914673,159.278046 605.515442,154.489319 
	C595.726624,152.191406 585.439331,151.289291 575.354736,151.118790 
	C547.881287,150.654236 520.395447,150.911362 492.914520,150.904892 
	C491.664581,150.904602 490.414551,151.122299 489.043243,151.249756 
	C489.043243,195.918381 489.043243,240.209198 489.043243,285.500000 
M1222.993042,342.358948 
	C1222.993042,347.136780 1222.993042,351.914642 1222.993042,356.614319 
	C1231.217773,356.614319 1238.919678,356.614319 1246.417236,356.614319 
	C1246.417236,287.842407 1246.417236,219.463760 1246.417236,151.161987 
	C1237.948975,151.161987 1229.851929,151.161987 1221.066162,151.161987 
	C1221.066162,175.247437 1221.066162,199.059677 1221.066162,223.492264 
	C1219.981812,222.568573 1219.562012,222.300476 1219.255371,221.936935 
	C1194.125854,192.138962 1143.361328,201.906647 1126.878540,237.082260 
	C1117.757690,256.547119 1115.244629,276.984894 1118.271729,297.990601 
	C1121.732422,322.004028 1132.045776,341.933777 1154.488770,353.907318 
	C1176.020996,365.394897 1203.148315,361.501678 1218.254517,344.538300 
	C1219.469849,343.173676 1220.550903,341.689545 1221.694458,340.260986 
	C1222.127197,340.696930 1222.559814,341.132874 1222.993042,342.358948 
M699.014648,252.459732 
	C699.582520,250.723328 700.146667,248.985687 700.718811,247.250687 
	C704.683594,235.227921 712.675537,227.404755 725.433044,226.410767 
	C734.621582,225.694824 744.140381,225.730957 753.167969,227.349655 
	C763.630737,229.225677 771.217773,235.680222 772.802368,247.149918 
	C773.234558,250.277985 773.194580,253.469681 773.585938,256.605377 
	C774.100952,260.732178 772.799316,263.139923 768.365906,263.873718 
	C754.756348,266.126343 741.214905,268.802124 727.586609,270.926117 
	C715.086731,272.874207 702.576721,274.333435 691.286621,280.870270 
	C675.348572,290.098236 667.744202,305.408081 670.043396,324.666443 
	C671.891052,340.141968 683.977600,353.793518 700.638306,357.838257 
	C725.910950,363.973724 749.147217,359.280731 769.822388,343.138336 
	C771.572388,341.772034 773.380981,340.480865 775.080505,339.215729 
	C776.910828,345.523468 778.555786,351.192596 780.202148,356.866333 
	C789.343140,356.866333 797.948059,356.866333 806.174988,356.866333 
	C804.387756,351.040039 801.761292,345.330017 801.007629,339.382660 
	C799.734558,329.335571 799.291809,319.143738 799.136169,309.002960 
	C798.826843,288.845703 799.237549,268.675781 798.819153,248.522156 
	C798.335388,225.218384 788.641235,212.580719 766.625061,207.151169 
	C746.647583,202.224365 726.636536,203.174072 707.057007,209.744720 
	C687.734680,216.229050 677.996887,230.660263 673.941528,250.549408 
	C682.410461,251.452332 690.583252,252.323669 699.014648,252.459732 
M1289.881836,232.406570 
	C1288.256836,235.304672 1286.400391,238.098816 1285.044312,241.117737 
	C1276.284668,260.619629 1275.536133,281.050171 1278.574463,301.788788 
	C1280.797241,316.961884 1286.386475,330.766022 1297.722900,341.496826 
	C1318.055298,360.742889 1342.352173,364.172211 1368.314819,357.101868 
	C1391.976685,350.658020 1407.412720,335.028320 1413.603882,311.103729 
	C1417.653320,295.455963 1418.028076,279.431732 1415.692261,263.486206 
	C1413.447632,248.162125 1407.281616,234.591873 1396.256104,223.323318 
	C1369.790649,196.274277 1314.340332,197.075150 1289.881836,232.406570 
M1074.781494,350.337280 
	C1082.010742,345.827271 1087.582886,339.811127 1091.485107,332.213684 
	C1101.174438,313.349335 1095.855347,290.920044 1078.497681,281.021606 
	C1071.515625,277.039978 1063.571777,274.553680 1055.832031,272.134155 
	C1041.880249,267.772766 1027.661133,264.262054 1013.732178,259.834503 
	C1005.141724,257.103912 1000.732056,250.911026 1000.936890,243.908218 
	C1001.139771,236.974197 1006.583435,230.364639 1014.477234,227.754135 
	C1024.692017,224.376068 1035.087158,224.144287 1045.499390,226.651978 
	C1054.973633,228.933777 1061.250854,234.886505 1064.426880,244.078400 
	C1065.004150,245.749023 1065.333374,247.505371 1065.856445,249.528915 
	C1074.183472,248.412506 1082.177856,247.340698 1090.530273,246.220871 
	C1088.115234,233.183609 1084.281982,221.347549 1072.594360,214.802094 
	C1048.159790,201.117920 1022.519836,199.806534 997.536682,212.349854 
	C971.295715,225.524658 968.656433,262.342163 992.678894,278.003998 
	C1001.499207,283.754547 1012.417969,286.490479 1022.625244,289.856232 
	C1034.447876,293.754639 1046.719971,296.318604 1058.466553,300.410126 
	C1070.304565,304.533478 1073.673950,316.408203 1066.562500,326.789978 
	C1064.815430,329.340424 1062.524048,331.777954 1059.954224,333.460114 
	C1048.559814,340.918884 1035.938354,340.354065 1023.321899,338.041473 
	C1010.259644,335.647156 1002.316406,327.358673 998.543945,314.853210 
	C997.941101,312.854858 997.604614,310.776154 997.076477,308.430237 
	C988.482849,309.774078 980.335449,311.048126 972.049133,312.343933 
	C972.451538,314.283417 972.728821,315.915039 973.131409,317.515137 
	C978.182495,337.590851 989.521240,352.133362 1010.250549,357.196594 
	C1032.171997,362.551056 1053.815063,362.157318 1074.781494,350.337280 
M834.674744,234.236496 
	C827.896912,255.136475 836.731079,274.620117 857.030579,282.771851 
	C864.106140,285.613190 871.471985,287.770935 878.788147,289.964569 
	C890.719910,293.542053 902.902405,296.371582 914.638977,300.486755 
	C926.216431,304.546112 929.583557,316.288300 922.715027,326.516632 
	C920.904663,329.212463 918.515625,331.847107 915.791199,333.545502 
	C903.317444,341.321716 889.816162,340.570435 876.287292,337.213684 
	C866.200500,334.710968 859.502014,328.095825 855.896606,318.411682 
	C854.748230,315.327026 853.968140,312.105255 852.878723,308.477295 
	C844.652954,309.758789 836.400391,311.044495 828.047607,312.345795 
	C828.456543,314.290771 828.721497,315.756134 829.074585,317.199951 
	C834.044800,337.522705 845.539612,351.964447 866.404907,357.299927 
	C883.138062,361.578796 900.060364,361.805328 916.697632,356.737671 
	C930.053833,352.669403 940.871338,345.085541 947.455261,332.269714 
	C957.150024,313.398651 951.903320,291.000427 934.554504,281.058136 
	C927.582703,277.062775 919.637085,274.573914 911.899597,272.149597 
	C898.110779,267.829315 884.060913,264.340668 870.279602,259.998413 
	C861.263245,257.157532 856.752014,251.149460 856.933044,243.982117 
	C857.111755,236.906708 862.688965,230.174469 870.870178,227.598969 
	C881.106567,224.376526 891.512390,224.114807 901.907349,226.758667 
	C911.157715,229.111404 917.280029,235.008591 920.394775,244.005768 
	C920.977661,245.689392 921.326416,247.454071 921.869690,249.508621 
	C930.114502,248.414688 938.116394,247.352982 946.497742,246.240921 
	C944.029602,232.069839 939.183594,219.936417 926.159119,213.210724 
	C905.782288,202.688339 884.388489,201.650742 862.673889,208.217560 
	C849.596069,212.172485 839.942993,220.423813 834.674744,234.236496 
z"/>
<path fill="#FDFDFD" opacity="1.000000" stroke="none" 
	d="
M343.989685,382.998779 
	C279.004364,382.997498 214.516739,382.929596 150.029388,383.034973 
	C130.291428,383.067200 114.123543,365.307861 114.109688,347.214752 
	C114.074364,301.057037 114.178703,254.899017 114.029846,208.741760 
	C113.971893,190.773621 128.482971,173.862137 147.617584,172.221237 
	C151.196350,171.914352 152.083954,170.755768 152.057663,167.421494 
	C151.930252,151.258957 151.818222,135.092361 152.040833,118.931892 
	C152.436325,90.221123 165.289246,67.923958 188.063324,51.124203 
	C203.443069,39.779045 220.786484,34.338558 240.015884,34.957485 
	C248.838379,35.241447 257.689301,34.713879 266.506805,35.066586 
	C286.257263,35.856602 303.616730,42.740005 318.980011,55.364235 
	C331.148193,65.363007 339.688110,77.767776 344.799194,92.329605 
	C347.578552,100.248154 349.392792,108.829590 349.774139,117.197189 
	C350.532043,133.826065 350.077637,150.514557 349.932465,167.176727 
	C349.901855,170.692825 350.767212,171.817932 354.572998,172.277328 
	C370.918793,174.250397 384.662170,186.660355 386.921661,203.257050 
	C387.431274,207.000366 387.881714,210.789276 387.887512,214.557907 
	C387.953705,257.549500 387.832642,300.541504 387.967255,343.532745 
	C388.036377,365.608826 371.724121,383.969910 348.486115,383.005127 
	C347.155457,382.949860 345.820435,382.998505 343.989685,382.998779 
M363.999664,291.500000 
	C363.999695,265.011627 364.017426,238.523239 363.990540,212.034897 
	C363.980499,202.136688 358.452393,196.017975 349.390442,196.013779 
	C283.752655,195.983459 218.114853,195.989014 152.477081,196.019089 
	C148.462662,196.020935 144.320084,196.598404 142.097214,200.360657 
	C140.277710,203.440201 138.185898,207.027390 138.166412,210.400818 
	C137.907349,255.212936 137.987457,300.027039 137.997665,344.840668 
	C137.999710,353.821228 143.095566,359.043152 151.879501,359.044556 
	C217.850479,359.054962 283.821472,359.073761 349.792267,358.961395 
	C352.409332,358.956940 355.314575,358.163239 357.581543,356.860352 
	C362.815796,353.852081 363.936646,348.494324 363.966736,342.977600 
	C364.058502,326.152161 363.999817,309.325928 363.999664,291.500000 
M211.752686,64.004333 
	C204.745834,69.533218 197.134613,74.457504 190.865463,80.724365 
	C179.841568,91.744232 175.489960,105.959290 175.085999,121.241562 
	C174.690125,136.218567 175.157944,151.216904 174.902283,166.199997 
	C174.826157,170.661499 175.826843,172.241150 180.657715,172.222000 
	C227.617676,172.035690 274.578674,172.110245 321.539368,172.095383 
	C322.972992,172.094940 324.406555,171.931107 326.056793,171.830200 
	C326.056793,155.510620 325.794922,139.542542 326.132507,123.587151 
	C326.452484,108.463547 322.579071,94.829994 313.066071,83.046707 
	C301.293945,68.465149 286.318390,59.593220 267.220306,58.999229 
	C257.071808,58.683590 246.903839,59.052624 236.748169,58.891460 
	C228.262650,58.756798 220.218750,60.411701 211.752686,64.004333 
z"/>
<path fill="#FDFDFD" opacity="1.000000" stroke="none" 
	d="
M1471.963867,287.000366 
	C1471.964355,310.473206 1471.964355,333.446167 1471.964355,356.724274 
	C1463.557129,356.724274 1455.312256,356.724274 1446.803711,356.724274 
	C1446.803711,307.211304 1446.803711,257.652802 1446.803711,207.863983 
	C1454.285278,207.863983 1461.537964,207.863983 1469.325562,207.863983 
	C1469.325562,214.094025 1469.325562,220.172012 1469.325562,227.903152 
	C1481.579834,212.035995 1496.442505,204.065002 1515.039673,204.299377 
	C1533.640381,204.533783 1548.847900,210.919525 1555.813843,228.019714 
	C1560.496094,223.990723 1565.341675,219.745560 1570.267822,215.596161 
	C1588.101685,200.574203 1619.137085,200.407486 1635.406250,215.210953 
	C1644.969482,223.912659 1648.440186,235.526291 1648.613159,247.635300 
	C1649.131592,283.917725 1648.799805,320.212280 1648.799805,356.765869 
	C1640.641724,356.765869 1632.564453,356.765869 1623.882812,356.765869 
	C1623.882812,355.037659 1623.882446,353.279175 1623.882690,351.520660 
	C1623.886841,323.363190 1623.942261,295.205566 1623.854126,267.048370 
	C1623.835327,261.061951 1623.484375,255.060272 1622.955688,249.094940 
	C1621.649048,234.354630 1610.474243,225.113724 1595.639648,226.297867 
	C1574.172485,228.011444 1561.774414,240.969345 1561.073608,263.828400 
	C1560.440918,284.468658 1560.826172,305.140411 1560.780640,325.798309 
	C1560.758179,335.948151 1560.776855,346.098053 1560.776855,356.638367 
	C1552.249023,356.638367 1543.892822,356.638367 1535.092163,356.638367 
	C1535.092163,354.819397 1535.093140,353.032898 1535.092041,351.246429 
	C1535.070679,319.257690 1535.095581,287.268768 1534.963989,255.280487 
	C1534.949097,251.661163 1534.419922,247.949509 1533.503174,244.444382 
	C1529.105103,227.627441 1515.749512,223.881409 1500.060303,227.432693 
	C1483.954468,231.078278 1474.740967,242.973862 1473.011108,261.563873 
	C1472.241333,269.836975 1472.287476,278.185974 1471.963867,287.000366 
z"/>
<path fill="#FDFDFD" opacity="1.000000" stroke="none" 
	d="
M489.043243,285.000000 
	C489.043243,240.209198 489.043243,195.918381 489.043243,151.249756 
	C490.414551,151.122299 491.664581,150.904602 492.914520,150.904892 
	C520.395447,150.911362 547.881287,150.654236 575.354736,151.118790 
	C585.439331,151.289291 595.726624,152.191406 605.515442,154.489319 
	C625.914673,159.278046 638.676453,172.716125 644.079895,192.857483 
	C648.359314,208.809052 647.248474,224.466812 640.252258,239.598785 
	C631.560791,258.397369 616.158264,268.306763 596.345520,270.739594 
	C581.042542,272.618652 565.495361,272.655212 550.045105,273.139496 
	C539.098450,273.482635 528.132385,273.205963 516.727783,273.205963 
	C516.727783,301.206390 516.727783,328.774445 516.727783,356.671997 
	C507.398163,356.671997 498.512756,356.671997 489.043243,356.671997 
	C489.043243,332.997955 489.043243,309.248962 489.043243,285.000000 
M516.571716,207.499756 
	C516.571716,221.225098 516.571716,234.950439 516.571716,248.931198 
	C525.644958,248.931198 533.953918,249.041885 542.258789,248.906387 
	C556.232483,248.678421 570.275391,249.075195 584.159180,247.796799 
	C606.331116,245.755234 617.308105,233.821426 618.273376,212.349518 
	C619.212280,191.463196 604.688721,175.906265 585.829651,175.812561 
	C565.028992,175.709229 544.229431,175.383423 523.429321,175.160721 
	C521.305603,175.137985 519.181519,175.157669 516.571716,175.157669 
	C516.571716,185.929352 516.571716,196.214539 516.571716,207.499756 
z"/>
<path fill="#FBFBFC" opacity="1.000000" stroke="none" 
	d="
M1222.992798,341.963898 
	C1222.559814,341.132874 1222.127197,340.696930 1221.694458,340.260986 
	C1220.550903,341.689545 1219.469849,343.173676 1218.254517,344.538300 
	C1203.148315,361.501678 1176.020996,365.394897 1154.488770,353.907318 
	C1132.045776,341.933777 1121.732422,322.004028 1118.271729,297.990601 
	C1115.244629,276.984894 1117.757690,256.547119 1126.878540,237.082260 
	C1143.361328,201.906647 1194.125854,192.138962 1219.255371,221.936935 
	C1219.562012,222.300476 1219.981812,222.568573 1221.066162,223.492264 
	C1221.066162,199.059677 1221.066162,175.247437 1221.066162,151.161987 
	C1229.851929,151.161987 1237.948975,151.161987 1246.417236,151.161987 
	C1246.417236,219.463760 1246.417236,287.842407 1246.417236,356.614319 
	C1238.919678,356.614319 1231.217773,356.614319 1222.993042,356.614319 
	C1222.993042,351.914642 1222.993042,347.136780 1222.992798,341.963898 
M1195.628540,227.649506 
	C1176.419556,221.165070 1157.075684,228.775879 1149.536743,247.261490 
	C1140.314819,269.873444 1140.275879,293.170959 1149.341431,315.917023 
	C1155.158081,330.511597 1170.525879,340.155090 1184.584961,339.577332 
	C1200.195557,338.935822 1213.639893,329.192749 1218.957520,313.483215 
	C1225.967285,292.774261 1225.235840,271.839905 1218.274048,251.252350 
	C1214.587646,240.351288 1207.004028,232.565826 1195.628540,227.649506 
z"/>
<path fill="#FDFDFD" opacity="1.000000" stroke="none" 
	d="
M698.885315,252.827362 
	C690.583252,252.323669 682.410461,251.452332 673.941528,250.549408 
	C677.996887,230.660263 687.734680,216.229050 707.057007,209.744720 
	C726.636536,203.174072 746.647583,202.224365 766.625061,207.151169 
	C788.641235,212.580719 798.335388,225.218384 798.819153,248.522156 
	C799.237549,268.675781 798.826843,288.845703 799.136169,309.002960 
	C799.291809,319.143738 799.734558,329.335571 801.007629,339.382660 
	C801.761292,345.330017 804.387756,351.040039 806.174988,356.866333 
	C797.948059,356.866333 789.343140,356.866333 780.202148,356.866333 
	C778.555786,351.192596 776.910828,345.523468 775.080505,339.215729 
	C773.380981,340.480865 771.572388,341.772034 769.822388,343.138336 
	C749.147217,359.280731 725.910950,363.973724 700.638306,357.838257 
	C683.977600,353.793518 671.891052,340.141968 670.043396,324.666443 
	C667.744202,305.408081 675.348572,290.098236 691.286621,280.870270 
	C702.576721,274.333435 715.086731,272.874207 727.586609,270.926117 
	C741.214905,268.802124 754.756348,266.126343 768.365906,263.873718 
	C772.799316,263.139923 774.100952,260.732178 773.585938,256.605377 
	C773.194580,253.469681 773.234558,250.277985 772.802368,247.149918 
	C771.217773,235.680222 763.630737,229.225677 753.167969,227.349655 
	C744.140381,225.730957 734.621582,225.694824 725.433044,226.410767 
	C712.675537,227.404755 704.683594,235.227921 700.718811,247.250687 
	C700.146667,248.985687 699.582520,250.723328 698.885315,252.827362 
M696.885864,320.101105 
	C698.107117,328.860443 703.063843,335.073456 711.194397,337.734467 
	C728.679199,343.457062 745.177612,340.848328 759.547668,329.110626 
	C774.492126,316.903778 773.665771,299.863129 773.052246,282.706451 
	C767.284912,284.237335 762.058777,285.909515 756.712952,286.988007 
	C742.855652,289.783630 728.862061,291.948181 715.081055,295.064178 
	C702.208984,297.974579 696.079163,306.636627 696.885864,320.101105 
z"/>
<path fill="#FCFCFC" opacity="1.000000" stroke="none" 
	d="
M1290.077515,232.105682 
	C1314.340332,197.075150 1369.790649,196.274277 1396.256104,223.323318 
	C1407.281616,234.591873 1413.447632,248.162125 1415.692261,263.486206 
	C1418.028076,279.431732 1417.653320,295.455963 1413.603882,311.103729 
	C1407.412720,335.028320 1391.976685,350.658020 1368.314819,357.101868 
	C1342.352173,364.172211 1318.055298,360.742889 1297.722900,341.496826 
	C1286.386475,330.766022 1280.797241,316.961884 1278.574463,301.788788 
	C1275.536133,281.050171 1276.284668,260.619629 1285.044312,241.117737 
	C1286.400391,238.098816 1288.256836,235.304672 1290.077515,232.105682 
M1339.578003,225.913940 
	C1324.825562,228.598663 1314.333008,236.962112 1308.749878,250.680969 
	C1300.864502,270.056610 1300.860962,290.033203 1307.118286,309.791107 
	C1313.080811,328.618378 1328.121338,339.393951 1346.932495,339.470245 
	C1365.762573,339.546661 1380.812012,328.437408 1386.930908,309.342926 
	C1392.453491,292.109497 1392.534058,274.545349 1387.714600,257.195251 
	C1381.601807,235.189682 1361.802979,222.330872 1339.578003,225.913940 
z"/>
<path fill="#FCFCFC" opacity="1.000000" stroke="none" 
	d="
M1074.493652,350.563354 
	C1053.815063,362.157318 1032.171997,362.551056 1010.250549,357.196594 
	C989.521240,352.133362 978.182495,337.590851 973.131409,317.515137 
	C972.728821,315.915039 972.451538,314.283417 972.049133,312.343933 
	C980.335449,311.048126 988.482849,309.774078 997.076477,308.430237 
	C997.604614,310.776154 997.941101,312.854858 998.543945,314.853210 
	C1002.316406,327.358673 1010.259644,335.647156 1023.321899,338.041473 
	C1035.938354,340.354065 1048.559814,340.918884 1059.954224,333.460114 
	C1062.524048,331.777954 1064.815430,329.340424 1066.562500,326.789978 
	C1073.673950,316.408203 1070.304565,304.533478 1058.466553,300.410126 
	C1046.719971,296.318604 1034.447876,293.754639 1022.625244,289.856232 
	C1012.417969,286.490479 1001.499207,283.754547 992.678894,278.003998 
	C968.656433,262.342163 971.295715,225.524658 997.536682,212.349854 
	C1022.519836,199.806534 1048.159790,201.117920 1072.594360,214.802094 
	C1084.281982,221.347549 1088.115234,233.183609 1090.530273,246.220871 
	C1082.177856,247.340698 1074.183472,248.412506 1065.856445,249.528915 
	C1065.333374,247.505371 1065.004150,245.749023 1064.426880,244.078400 
	C1061.250854,234.886505 1054.973633,228.933777 1045.499390,226.651978 
	C1035.087158,224.144287 1024.692017,224.376068 1014.477234,227.754135 
	C1006.583435,230.364639 1001.139771,236.974197 1000.936890,243.908218 
	C1000.732056,250.911026 1005.141724,257.103912 1013.732178,259.834503 
	C1027.661133,264.262054 1041.880249,267.772766 1055.832031,272.134155 
	C1063.571777,274.553680 1071.515625,277.039978 1078.497681,281.021606 
	C1095.855347,290.920044 1101.174438,313.349335 1091.485107,332.213684 
	C1087.582886,339.811127 1082.010742,345.827271 1074.493652,350.563354 
z"/>
<path fill="#FCFCFC" opacity="1.000000" stroke="none" 
	d="
M834.792175,233.860138 
	C839.942993,220.423813 849.596069,212.172485 862.673889,208.217560 
	C884.388489,201.650742 905.782288,202.688339 926.159119,213.210724 
	C939.183594,219.936417 944.029602,232.069839 946.497742,246.240921 
	C938.116394,247.352982 930.114502,248.414688 921.869690,249.508621 
	C921.326416,247.454071 920.977661,245.689392 920.394775,244.005768 
	C917.280029,235.008591 911.157715,229.111404 901.907349,226.758667 
	C891.512390,224.114807 881.106567,224.376526 870.870178,227.598969 
	C862.688965,230.174469 857.111755,236.906708 856.933044,243.982117 
	C856.752014,251.149460 861.263245,257.157532 870.279602,259.998413 
	C884.060913,264.340668 898.110779,267.829315 911.899597,272.149597 
	C919.637085,274.573914 927.582703,277.062775 934.554504,281.058136 
	C951.903320,291.000427 957.150024,313.398651 947.455261,332.269714 
	C940.871338,345.085541 930.053833,352.669403 916.697632,356.737671 
	C900.060364,361.805328 883.138062,361.578796 866.404907,357.299927 
	C845.539612,351.964447 834.044800,337.522705 829.074585,317.199951 
	C828.721497,315.756134 828.456543,314.290771 828.047607,312.345795 
	C836.400391,311.044495 844.652954,309.758789 852.878723,308.477295 
	C853.968140,312.105255 854.748230,315.327026 855.896606,318.411682 
	C859.502014,328.095825 866.200500,334.710968 876.287292,337.213684 
	C889.816162,340.570435 903.317444,341.321716 915.791199,333.545502 
	C918.515625,331.847107 920.904663,329.212463 922.715027,326.516632 
	C929.583557,316.288300 926.216431,304.546112 914.638977,300.486755 
	C902.902405,296.371582 890.719910,293.542053 878.788147,289.964569 
	C871.471985,287.770935 864.106140,285.613190 857.030579,282.771851 
	C836.731079,274.620117 827.896912,255.136475 834.792175,233.860138 
z"/>
<path fill="#0D1117" opacity="1.000000" stroke="none" 
	d="
M363.999664,292.000000 
	C363.999817,309.325928 364.058502,326.152161 363.966736,342.977600 
	C363.936646,348.494324 362.815796,353.852081 357.581543,356.860352 
	C355.314575,358.163239 352.409332,358.956940 349.792267,358.961395 
	C283.821472,359.073761 217.850479,359.054962 151.879501,359.044556 
	C143.095566,359.043152 137.999710,353.821228 137.997665,344.840668 
	C137.987457,300.027039 137.907349,255.212936 138.166412,210.400818 
	C138.185898,207.027390 140.277710,203.440201 142.097214,200.360657 
	C144.320084,196.598404 148.462662,196.020935 152.477081,196.019089 
	C218.114853,195.989014 283.752655,195.983459 349.390442,196.013779 
	C358.452393,196.017975 363.980499,202.136688 363.990540,212.034897 
	C364.017426,238.523239 363.999695,265.011627 363.999664,292.000000 
M246.649277,269.978546 
	C233.526611,264.065063 220.403961,258.151581 207.478119,252.326782 
	C205.468491,258.371155 207.435974,261.927368 213.497589,263.175079 
	C215.062149,263.497101 216.519119,264.369110 218.007523,265.029053 
	C225.376434,268.296417 232.739304,271.577423 241.034348,275.267334 
	C231.029770,279.511932 222.172379,283.388458 213.219208,287.029480 
	C206.482178,289.769257 206.021576,290.421448 207.728119,297.950623 
	C220.702118,292.002411 233.626923,286.021851 246.614105,280.179993 
	C248.628479,279.273895 251.077805,279.518158 251.102783,276.132782 
	C251.124939,273.129395 250.487106,271.009918 246.649277,269.978546 
M277.500183,317.042267 
	C270.735107,317.042267 263.970032,317.042267 257.297119,317.042267 
	C257.297119,319.679962 257.297119,321.742462 257.297119,323.737061 
	C272.332397,323.737061 287.062714,323.737061 301.698914,323.737061 
	C301.698914,321.400879 301.698914,319.340088 301.698914,317.042267 
	C293.762695,317.042267 286.131378,317.042267 277.500183,317.042267 
z"/>
<path fill="#0D1117" opacity="1.000000" stroke="none" 
	d="
M212.141113,63.969933 
	C220.218750,60.411701 228.262650,58.756798 236.748169,58.891460 
	C246.903839,59.052624 257.071808,58.683590 267.220306,58.999229 
	C286.318390,59.593220 301.293945,68.465149 313.066071,83.046707 
	C322.579071,94.829994 326.452484,108.463547 326.132507,123.587151 
	C325.794922,139.542542 326.056793,155.510620 326.056793,171.830200 
	C324.406555,171.931107 322.972992,172.094940 321.539368,172.095383 
	C274.578674,172.110245 227.617676,172.035690 180.657715,172.222000 
	C175.826843,172.241150 174.826157,170.661499 174.902283,166.199997 
	C175.157944,151.216904 174.690125,136.218567 175.085999,121.241562 
	C175.489960,105.959290 179.841568,91.744232 190.865463,80.724365 
	C197.134613,74.457504 204.745834,69.533218 212.141113,63.969933 
z"/>
<path fill="#0E1218" opacity="1.000000" stroke="none" 
	d="
M516.571716,206.999756 
	C516.571716,196.214539 516.571716,185.929352 516.571716,175.157669 
	C519.181519,175.157669 521.305603,175.137985 523.429321,175.160721 
	C544.229431,175.383423 565.028992,175.709229 585.829651,175.812561 
	C604.688721,175.906265 619.212280,191.463196 618.273376,212.349518 
	C617.308105,233.821426 606.331116,245.755234 584.159180,247.796799 
	C570.275391,249.075195 556.232483,248.678421 542.258789,248.906387 
	C533.953918,249.041885 525.644958,248.931198 516.571716,248.931198 
	C516.571716,234.950439 516.571716,221.225098 516.571716,206.999756 
z"/>
<path fill="#0E1218" opacity="1.000000" stroke="none" 
	d="
M1195.993530,227.789154 
	C1207.004028,232.565826 1214.587646,240.351288 1218.274048,251.252350 
	C1225.235840,271.839905 1225.967285,292.774261 1218.957520,313.483215 
	C1213.639893,329.192749 1200.195557,338.935822 1184.584961,339.577332 
	C1170.525879,340.155090 1155.158081,330.511597 1149.341431,315.917023 
	C1140.275879,293.170959 1140.314819,269.873444 1149.536743,247.261490 
	C1157.075684,228.775879 1176.419556,221.165070 1195.993530,227.789154 
z"/>
<path fill="#0F1319" opacity="1.000000" stroke="none" 
	d="
M696.847717,319.655151 
	C696.079163,306.636627 702.208984,297.974579 715.081055,295.064178 
	C728.862061,291.948181 742.855652,289.783630 756.712952,286.988007 
	C762.058777,285.909515 767.284912,284.237335 773.052246,282.706451 
	C773.665771,299.863129 774.492126,316.903778 759.547668,329.110626 
	C745.177612,340.848328 728.679199,343.457062 711.194397,337.734467 
	C703.063843,335.073456 698.107117,328.860443 696.847717,319.655151 
z"/>
<path fill="#0E1218" opacity="1.000000" stroke="none" 
	d="
M1340.004272,225.855988 
	C1361.802979,222.330872 1381.601807,235.189682 1387.714600,257.195251 
	C1392.534058,274.545349 1392.453491,292.109497 1386.930908,309.342926 
	C1380.812012,328.437408 1365.762573,339.546661 1346.932495,339.470245 
	C1328.121338,339.393951 1313.080811,328.618378 1307.118286,309.791107 
	C1300.860962,290.033203 1300.864502,270.056610 1308.749878,250.680969 
	C1314.333008,236.962112 1324.825562,228.598663 1340.004272,225.855988 
z"/>
<path fill="#FBFBFC" opacity="1.000000" stroke="none" 
	d="
M247.039246,270.045044 
	C250.487106,271.009918 251.124939,273.129395 251.102783,276.132782 
	C251.077805,279.518158 248.628479,279.273895 246.614105,280.179993 
	C233.626923,286.021851 220.702118,292.002411 207.728119,297.950623 
	C206.021576,290.421448 206.482178,289.769257 213.219208,287.029480 
	C222.172379,283.388458 231.029770,279.511932 241.034348,275.267334 
	C232.739304,271.577423 225.376434,268.296417 218.007523,265.029053 
	C216.519119,264.369110 215.062149,263.497101 213.497589,263.175079 
	C207.435974,261.927368 205.468491,258.371155 207.478119,252.326782 
	C220.403961,258.151581 233.526611,264.065063 247.039246,270.045044 
z"/>
<path fill="#FCFCFC" opacity="1.000000" stroke="none" 
	d="
M278.000122,317.042267 
	C286.131378,317.042267 293.762695,317.042267 301.698914,317.042267 
	C301.698914,319.340088 301.698914,321.400879 301.698914,323.737061 
	C287.062714,323.737061 272.332397,323.737061 257.297119,323.737061 
	C257.297119,321.742462 257.297119,319.679962 257.297119,317.042267 
	C263.970032,317.042267 270.735107,317.042267 278.000122,317.042267 
z"/>
</svg>