<svg version="1.1" id="Layer_1" xmlns="http://www.w3.org/2000/svg" xmlns:xlink="http://www.w3.org/1999/xlink" x="0px" y="0px"
	 width="100%" viewBox="0 0 274 348" enable-background="new 0 0 274 348" xml:space="preserve">
<path fill="#FDFDFD" opacity="1.000000" stroke="none" 
	d="
M248.000000,349.000000 
	C174.645767,349.000000 101.291542,349.000000 27.776985,348.693085 
	C27.432980,348.111786 27.305681,347.671051 27.057524,347.586914 
	C15.371527,343.626740 7.494971,335.787170 3.088693,324.310944 
	C2.853019,323.697113 1.716932,323.429047 1.000000,323.000000 
	C1.000000,270.312439 1.000000,217.624878 1.296310,164.784515 
	C2.354397,163.608765 3.390164,162.692490 3.836214,161.546631 
	C9.199408,147.769135 19.662363,140.247330 33.861973,138.331619 
	C38.553642,137.698624 39.111420,136.113541 39.066177,132.213257 
	C38.900196,117.903572 39.308605,103.582008 38.901016,89.282013 
	C38.582947,78.122574 40.168995,67.420418 44.104366,57.036755 
	C50.016304,41.437855 59.741047,28.693380 72.977264,18.562635 
	C82.263603,11.455052 92.438393,6.277789 103.861977,3.559437 
	C105.044060,3.278151 105.960365,1.879951 107.000000,0.999999 
	C126.687561,1.000000 146.375122,1.000000 166.211365,1.333093 
	C166.834152,2.097381 167.256119,2.822469 167.789886,2.917147 
	C184.746262,5.924831 199.125717,14.072100 211.170639,25.982796 
	C228.063644,42.687565 236.796707,63.183407 236.976898,87.076935 
	C237.093674,102.561455 236.996536,118.047585 236.997025,133.532990 
	C236.997101,135.687149 236.609161,137.785858 239.939072,138.159943 
	C256.502533,140.020645 267.676788,148.723572 273.028107,164.680725 
	C273.227112,165.274170 274.322388,165.567047 275.000000,166.000000 
	C275.000000,217.354233 275.000000,268.708466 274.690247,320.210266 
	C273.996277,320.659485 273.365601,320.894562 273.263580,321.272369 
	C269.701935,334.462494 261.576782,343.230042 248.398865,347.213379 
	C248.112106,347.300079 248.126251,348.382233 248.000000,349.000000 
M48.516655,161.998444 
	C45.517357,161.998108 42.512489,162.116043 39.519817,161.975067 
	C30.824097,161.565399 24.772964,169.620590 24.826900,176.836548 
	C25.159428,221.323029 25.112028,265.813812 24.891615,310.301697 
	C24.848183,319.067963 31.140007,325.249817 39.813808,325.210419 
	C104.962967,324.914276 170.115234,324.854004 235.263443,325.240753 
	C246.168320,325.305511 250.993195,317.713043 250.995438,309.044769 
	C251.006699,265.388947 251.012589,221.733109 250.991501,178.077286 
	C250.986420,167.573120 245.378983,161.998611 234.965485,161.998505 
	C173.147491,161.997864 111.329498,161.998337 48.516655,161.998444 
M61.999245,112.499992 
	C61.999119,118.995636 62.277740,125.507294 61.905872,131.981583 
	C61.634918,136.698914 62.978199,138.235382 67.943520,138.214996 
	C114.578850,138.023544 161.215286,138.099472 207.851395,138.098175 
	C209.465103,138.098129 211.078812,138.098160 212.839325,138.098160 
	C212.959335,137.004654 213.089630,136.372833 213.089111,135.741104 
	C213.074219,117.586655 213.152969,99.430893 212.931183,81.278839 
	C212.886276,77.603790 211.986755,73.861580 210.984039,70.289917 
	C207.529816,57.985943 200.794937,47.612122 190.989563,39.526600 
	C180.330872,30.737446 168.241653,24.989944 154.032791,24.953566 
	C142.540451,24.924143 131.044601,24.798567 119.557442,25.046576 
	C115.706276,25.129723 111.807800,25.961149 108.050346,26.918940 
	C94.196655,30.450298 83.408295,38.768974 74.845222,49.812092 
	C68.206665,58.373306 63.745617,68.235077 63.012669,79.210762 
	C62.295605,89.948517 62.307384,100.734940 61.999245,112.499992 
z"/>
<path fill="#000000" opacity="1.000000" stroke="none" 
	d="
M275.000000,165.531342 
	C274.322388,165.567047 273.227112,165.274170 273.028107,164.680725 
	C267.676788,148.723572 256.502533,140.020645 239.939072,138.159943 
	C236.609161,137.785858 236.997101,135.687149 236.997025,133.532990 
	C236.996536,118.047585 237.093674,102.561455 236.976898,87.076935 
	C236.796707,63.183407 228.063644,42.687565 211.170639,25.982796 
	C199.125717,14.072100 184.746262,5.924831 167.789886,2.917147 
	C167.256119,2.822469 166.834152,2.097381 166.680023,1.333093 
	C202.942230,1.000000 238.884460,1.000000 275.000000,1.000000 
	C275.000000,55.687439 275.000000,110.375061 275.000000,165.531342 
z"/>
<path fill="#000000" opacity="1.000000" stroke="none" 
	d="
M106.531342,0.999999 
	C105.960365,1.879951 105.044060,3.278151 103.861977,3.559437 
	C92.438393,6.277789 82.263603,11.455052 72.977264,18.562635 
	C59.741047,28.693380 50.016304,41.437855 44.104366,57.036755 
	C40.168995,67.420418 38.582947,78.122574 38.901016,89.282013 
	C39.308605,103.582008 38.900196,117.903572 39.066177,132.213257 
	C39.111420,136.113541 38.553642,137.698624 33.861973,138.331619 
	C19.662363,140.247330 9.199408,147.769135 3.836214,161.546631 
	C3.390164,162.692490 2.354397,163.608765 1.296310,164.315857 
	C1.000000,109.755150 1.000000,55.510300 1.000000,1.000000 
	C36.020447,1.000000 71.041565,1.000000 106.531342,0.999999 
z"/>
<path fill="#000000" opacity="1.000000" stroke="none" 
	d="
M248.468658,349.000000 
	C248.126251,348.382233 248.112106,347.300079 248.398865,347.213379 
	C261.576782,343.230042 269.701935,334.462494 273.263580,321.272369 
	C273.365601,320.894562 273.996277,320.659485 274.690247,320.678925 
	C275.000000,330.258453 275.000000,339.516876 275.000000,349.000000 
	C266.313721,349.000000 257.625519,349.000000 248.468658,349.000000 
z"/>
<path fill="#000000" opacity="1.000000" stroke="none" 
	d="
M1.000000,323.468658 
	C1.716932,323.429047 2.853019,323.697113 3.088693,324.310944 
	C7.494971,335.787170 15.371527,343.626740 27.057524,347.586914 
	C27.305681,347.671051 27.432980,348.111786 27.308327,348.693085 
	C18.406927,349.000000 9.813854,349.000000 1.000000,349.000000 
	C1.000000,340.647064 1.000000,332.292206 1.000000,323.468658 
z"/>
<path fill="#000000" opacity="1.000000" stroke="none" 
	d="
M49.014084,161.998444 
	C111.329498,161.998337 173.147491,161.997864 234.965485,161.998505 
	C245.378983,161.998611 250.986420,167.573120 250.991501,178.077286 
	C251.012589,221.733109 251.006699,265.388947 250.995438,309.044769 
	C250.993195,317.713043 246.168320,325.305511 235.263443,325.240753 
	C170.115234,324.854004 104.962967,324.914276 39.813808,325.210419 
	C31.140007,325.249817 24.848183,319.067963 24.891615,310.301697 
	C25.112028,265.813812 25.159428,221.323029 24.826900,176.836548 
	C24.772964,169.620590 30.824097,161.565399 39.519817,161.975067 
	C42.512489,162.116043 45.517357,161.998108 49.014084,161.998444 
M134.591324,245.983490 
	C136.794922,245.369705 138.179794,244.433472 138.121597,241.630981 
	C138.066269,238.966354 137.417252,237.392426 134.842285,236.383499 
	C131.079269,234.909073 127.461426,233.067017 123.765350,231.418289 
	C113.934082,227.032730 104.094086,222.666763 94.443428,218.375656 
	C92.522675,224.390976 94.427788,227.977783 100.513374,229.184967 
	C102.074478,229.494614 103.529984,230.368637 105.014374,231.027603 
	C112.369621,234.292877 119.718277,237.572998 127.883926,241.210815 
	C118.213226,245.423813 109.595352,249.351425 100.838692,252.940430 
	C93.268509,256.043182 93.198807,255.873108 94.569466,264.032715 
	C107.680779,258.014587 120.733154,252.023544 134.591324,245.983490 
M186.291290,290.005737 
	C191.775055,289.420135 187.727127,285.578094 189.185150,283.266235 
	C173.811035,283.266235 159.074554,283.266235 144.225525,283.266235 
	C144.225525,285.561859 144.225525,287.625763 144.225525,290.005920 
	C158.078720,290.005920 171.703079,290.005920 186.291290,290.005737 
z"/>
<path fill="#000000" opacity="1.000000" stroke="none" 
	d="
M61.999245,112.000000 
	C62.307384,100.734940 62.295605,89.948517 63.012669,79.210762 
	C63.745617,68.235077 68.206665,58.373306 74.845222,49.812092 
	C83.408295,38.768974 94.196655,30.450298 108.050346,26.918940 
	C111.807800,25.961149 115.706276,25.129723 119.557442,25.046576 
	C131.044601,24.798567 142.540451,24.924143 154.032791,24.953566 
	C168.241653,24.989944 180.330872,30.737446 190.989563,39.526600 
	C200.794937,47.612122 207.529816,57.985943 210.984039,70.289917 
	C211.986755,73.861580 212.886276,77.603790 212.931183,81.278839 
	C213.152969,99.430893 213.074219,117.586655 213.089111,135.741104 
	C213.089630,136.372833 212.959335,137.004654 212.839325,138.098160 
	C211.078812,138.098160 209.465103,138.098129 207.851395,138.098175 
	C161.215286,138.099472 114.578850,138.023544 67.943520,138.214996 
	C62.978199,138.235382 61.634918,136.698914 61.905872,131.981583 
	C62.277740,125.507294 61.999119,118.995636 61.999245,112.000000 
z"/>
<path fill="#FBFBFC" opacity="1.000000" stroke="none" 
	d="
M134.188416,246.007996 
	C120.733154,252.023544 107.680779,258.014587 94.569466,264.032715 
	C93.198807,255.873108 93.268509,256.043182 100.838692,252.940430 
	C109.595352,249.351425 118.213226,245.423813 127.883926,241.210815 
	C119.718277,237.572998 112.369621,234.292877 105.014374,231.027603 
	C103.529984,230.368637 102.074478,229.494614 100.513374,229.184967 
	C94.427788,227.977783 92.522675,224.390976 94.443428,218.375656 
	C104.094086,222.666763 113.934082,227.032730 123.765350,231.418289 
	C127.461426,233.067017 131.079269,234.909073 134.842285,236.383499 
	C137.417252,237.392426 138.066269,238.966354 138.121597,241.630981 
	C138.179794,244.433472 136.794922,245.369705 134.188416,246.007996 
z"/>
<path fill="#FCFCFC" opacity="1.000000" stroke="none" 
	d="
M185.809372,290.005829 
	C171.703079,290.005920 158.078720,290.005920 144.225525,290.005920 
	C144.225525,287.625763 144.225525,285.561859 144.225525,283.266235 
	C159.074554,283.266235 173.811035,283.266235 189.185150,283.266235 
	C187.727127,285.578094 191.775055,289.420135 185.809372,290.005829 
z"/>
</svg>